PathFileType	4	(X/Y/Z)	E:\Qualisys_Data\Carbon_Farble_Plate\Data\Amateur_Runner\S2\T2\S2T2V22_c3d.trc
DataRate	CameraRate	NumFrames	NumMarkers	Units	OrigDataRate	OrigDataStartFrame	OrigNumFrames
200.000000	200.000000	5	39	mm	200.000000	111	298
Frame#	Time	LSHO			RSHO			LICST			RICST			LASIS			LHEEL			RASIS			LTROC			RTROC			SACR			LTH1			LSK4			LTH2			LTH3			RHM5			LSK2			LTH4			RTH1			LTOE			RTH2			RTH3			RTH4			LLEP			RLEP			LSK1			LSK3			RSK1			LHM5			RSK2			LFT1			RSK3			RSK4			LLME			RLME			RTOE			RHEEL			RFT1			RFT2			LFT2			
		X1	Y1	Z1	X2	Y2	Z2	X3	Y3	Z3	X4	Y4	Z4	X5	Y5	Z5	X6	Y6	Z6	X7	Y7	Z7	X8	Y8	Z8	X9	Y9	Z9	X10	Y10	Z10	X11	Y11	Z11	X12	Y12	Z12	X13	Y13	Z13	X14	Y14	Z14	X15	Y15	Z15	X16	Y16	Z16	X17	Y17	Z17	X18	Y18	Z18	X19	Y19	Z19	X20	Y20	Z20	X21	Y21	Z21	X22	Y22	Z22	X23	Y23	Z23	X24	Y24	Z24	X25	Y25	Z25	X26	Y26	Z26	X27	Y27	Z27	X28	Y28	Z28	X29	Y29	Z29	X30	Y30	Z30	X31	Y31	Z31	X32	Y32	Z32	X33	Y33	Z33	X34	Y34	Z34	X35	Y35	Z35	X36	Y36	Z36	X37	Y37	Z37	X38	Y38	Z38	X39	Y39	Z39	

112	0.555	-706.980224609375	1429.602416992188	-480.6856384277344	-709.2888793945312	1431.307983398438	-166.4432678222656	-794.378173828125	976.21240234375	-449.5801391601562	-750.5986328125	965.4530029296876	-148.73486328125	-741.581787109375	924.6394653320312	-440.0743103027344	-1182.993041992188	149.7363128662109	-301.4555358886719	-696.9374389648438	917.2603149414062	-181.9837646484375	-882.6917724609375	863.6844482421875	-432.9242553710938	-831.4505615234375	862.4025268554688	-133.6484985351562	-860.2747192382812	1017.981872558594	-287.7564392089844	-798.1109619140625	612.6142578125	-450.5350646972656	-1038.427490234375	311.7505493164062	-406.6249694824219	-878.8799438476562	623.7172241210938	-445.9219665527344	-810.7845458984375	512.0194091796875	-425.93994140625	-940.3518676757812	302.4048156738281	-138.9328765869141	-978.336669921875	389.206298828125	-427.5072021484375	-897.4962158203125	528.0527954101562	-419.4441223144531	-583.9390869140625	682.5703735351562	-140.6227416992188	-959.1403198242188	66.43245697021484	-327.4360961914062	-651.4989624023438	643.2196655273438	-131.8825988769531	-534.841552734375	595.1107788085938	-157.6378936767578	-606.876708984375	556.6323852539062	-148.7648162841797	-866.9384155273438	471.426513671875	-422.3153381347656	-568.668212890625	542.8632202148438	-146.8487548828125	-915.7466430664062	342.2066345214844	-417.8680725097656	-975.77783203125	263.7984619140625	-400.4731750488281	-640.3609008789062	466.4334716796875	-154.7092590332031	-1019.158630371094	65.42611694335938	-385.6851501464844	-662.0719604492188	543.5464477539062	-143.9014892578125	-1180.285888671875	119.8836059570312	-280.1001892089844	-739.2322998046875	438.8369445800781	-159.0503692626953	-757.4771728515625	516.5908203125	-152.3360443115234	-1112.45947265625	148.4631195068359	-368.1684875488281	-929.3915405273438	425.8276672363281	-175.39599609375	-899.5503540039062	237.2890167236328	-191.9941101074219	-963.6683959960938	475.5896911621094	-235.2862396240234	-983.872802734375	448.1907348632812	-263.0310974121094	-992.63623046875	467.7086181640625	-211.480224609375	-1191.406982421875	118.1469802856445	-332.4366455078125
113	0.56	-683.3511962890625	1434.9150390625	-479.5755004882812	-689.6552734375	1435.94384765625	-166.4989013671875	-770.5166625976562	979.9087524414062	-449.7988891601562	-727.95458984375	970.6100463867188	-148.8598785400391	-718.8010864257812	927.5220947265624	-440.0882873535156	-1176.293701171875	158.7520751953125	-303.7082214355469	-674.5387573242188	922.5374755859376	-182.6391754150391	-861.0695190429688	868.1778564453125	-432.32861328125	-807.4020385742188	868.1279296875	-131.9706878662109	-837.8282470703125	1022.2216796875	-289.0003662109375	-782.8348388671875	616.4901733398438	-449.9355163574219	-1031.219604492188	320.271728515625	-407.9250183105469	-863.6663208007812	629.9212646484375	-445.5308532714844	-798.8109741210938	516.3360595703125	-426.0132446289062	-899.7716064453125	291.7737731933594	-138.0613250732422	-970.514404296875	397.1687622070312	-428.9930419921875	-881.1117553710938	533.9896240234375	-419.45703125	-559.475830078125	691.180908203125	-141.9555358886719	-957.3467407226562	66.69425201416016	-328.2875671386719	-625.9591674804688	650.455322265625	-133.2991943359375	-508.6656494140625	604.3906860351562	-159.3982086181641	-580.0550537109375	564.6849975585938	-151.1342163085938	-856.8775634765625	477.5820007324219	-423.2191467285156	-542.106689453125	551.3250732421875	-149.2093505859375	-908.6495361328124	349.4027099609375	-420.1576538085938	-969.8793334960938	271.7349853515625	-402.9743957519531	-610.0262451171875	471.4268798828125	-155.3602905273438	-1016.958984375	66.27310943603516	-386.5776977539062	-636.1145629882812	546.965087890625	-146.1192932128906	-1174.986450195312	128.5705108642578	-281.8087463378906	-707.3718872070312	438.9351501464844	-159.5380859375	-729.7718505859375	514.9874267578125	-153.3645477294922	-1105.87939453125	155.1251983642578	-370.3794250488281	-897.1143798828125	414.8591003417969	-175.9704132080078	-854.0540161132812	228.9076690673828	-190.6112060546875	-934.8197021484376	461.4763488769531	-236.0509490966797	-955.939453125	433.6564636230469	-265.0563659667969	-962.8560791015624	451.6396484375	-212.67333984375	-1186.003540039062	126.5584869384766	-333.6476745605469
114	0.565	-659.682373046875	1439.99560546875	-478.1158752441406	-670.0169067382812	1440.614013671875	-166.4517669677734	-746.466796875	983.1075439453124	-449.9093322753906	-705.294677734375	975.9788208007812	-149.4333648681641	-696.0870971679688	930.4486694335938	-440.1882629394531	-1166.200561523438	169.6532135009766	-306.3280334472656	-651.9837036132812	927.77880859375	-183.1785583496094	-839.6952514648438	872.871826171875	-432.02197265625	-783.1029663085938	874.0740356445312	-130.1119537353516	-815.015869140625	1026.317260742188	-290.2864074707031	-767.0641479492188	620.2542724609375	-449.9966125488281	-1023.109619140625	329.0170288085938	-409.1212768554688	-847.7340087890625	637.1484985351562	-446.9534606933594	-786.4218139648438	521.2029418945312	-426.4502868652344	-858.4656372070312	281.3412475585938	-137.1114807128906	-961.9437255859376	405.7098999023438	-430.3826599121094	-868.2261352539062	541.3113403320312	-421.0591735839844	-535.064453125	699.1901245117188	-143.1332092285156	-954.6997680664062	67.0239028930664	-329.7406005859375	-600.7947387695312	657.9656982421875	-134.3239898681641	-483.1333312988281	613.5140380859375	-161.2522888183594	-553.8982543945312	572.6419677734375	-152.9905395507812	-846.1305541992188	483.9895629882812	-424.3367919921875	-515.5275268554688	559.47998046875	-151.6761169433594	-900.23291015625	357.245849609375	-422.30859375	-962.2424926757812	279.953369140625	-406.1101684570312	-580.5958862304688	475.2518920898438	-156.9496612548828	-1015.594421386719	67.02014923095703	-387.370361328125	-610.5215454101562	549.8738403320312	-148.0708465576172	-1168.05810546875	138.9018859863281	-283.1530151367188	-675.8779907226562	437.9125671386719	-160.4190216064453	-702.3455810546875	512.8397827148438	-154.5371856689453	-1098.316162109375	162.1848754882812	-372.3277282714844	-864.2887573242188	403.4481811523438	-176.6611938476562	-809.2182006835938	220.9174346923828	-189.2590026855469	-905.1282348632812	447.1897888183594	-237.1336669921875	-924.101318359375	417.6792907714844	-264.8662414550781	-932.9093017578124	436.0607604980469	-213.5518341064453	-1179.35888671875	136.8265533447266	-335.197021484375
115	0.57	-636.2471313476562	1445.593505859375	-476.734130859375	-650.1622314453125	1445.366088867188	-166.5753631591797	-722.8280639648438	986.5982666015624	-449.5436096191406	-682.2845458984375	981.54052734375	-150.0232086181641	-672.7579956054688	933.5194091796876	-440.0122680664062	-1156.021484375	180.48046875	-308.5028381347656	-629.5125732421875	932.7473754882812	-183.5039367675781	-818.314453125	877.742919921875	-432.2287292480469	-758.5202026367188	879.9747924804688	-128.4118499755859	-792.9002685546875	1030.2919921875	-291.3703308105469	-750.9482421875	624.5965576171875	-450.5740051269531	-1014.057373046875	337.6337280273438	-410.5132751464844	-831.258056640625	644.0396118164062	-447.7373352050781	-773.8273315429688	526.070556640625	-426.809326171875	-816.972900390625	271.4200134277344	-136.1379547119141	-952.97216796875	414.1746520996094	-431.513916015625	-855.3075561523438	548.7821044921875	-421.650634765625	-510.5584106445312	706.9786987304688	-144.6694488525391	-951.7384033203124	66.91542053222656	-331.3448791503906	-575.9851684570312	664.9182739257812	-135.4842376708984	-458.0049743652344	621.6113891601562	-163.1571960449219	-528.1978149414062	580.1004028320312	-154.8783416748047	-834.861328125	491.3865661621094	-426.0438842773438	-489.9434814453125	567.261474609375	-153.2816467285156	-891.4749755859375	365.25244140625	-424.4923706054688	-953.7592163085938	287.9134521484375	-408.7603149414062	-551.1493530273438	479.4894104003906	-157.2369842529297	-1012.846923828125	68.28080749511719	-388.8404541015625	-585.0100708007812	551.9304809570312	-150.2878570556641	-1159.45849609375	150.2530670166016	-284.8702697753906	-644.6178588867188	436.767822265625	-160.8558807373047	-674.9498291015625	510.0838928222656	-156.0389709472656	-1089.93359375	168.9902801513672	-374.8282775878906	-830.4314575195312	392.5930480957031	-176.8269805908203	-763.6259765625	214.2616424560547	-188.0244140625	-874.352783203125	432.8218383789062	-237.3871002197266	-891.5469970703125	401.8810729980469	-265.6261291503906	-901.9278564453124	419.7930603027344	-213.5341491699219	-1171.30322265625	147.8028259277344	-336.3970031738281
116	0.575	-612.883544921875	1450.75537109375	-475.3924560546875	-630.40234375	1449.892578125	-166.5763092041016	-698.8738403320312	990.286865234375	-449.6548156738281	-659.6395874023438	986.4683837890624	-150.609130859375	-649.8380737304688	936.4644775390624	-439.8246459960938	-1144.506103515625	191.8273468017578	-310.8531799316406	-607.3034057617188	937.8174438476562	-183.8213653564453	-796.4635009765625	882.5477905273438	-432.2223205566406	-734.0587768554688	885.6324462890625	-126.8067016601562	-769.7767944335938	1034.413818359375	-292.4349060058594	-734.527587890625	628.445556640625	-451.015380859375	-1004.196350097656	346.6375732421875	-411.6913146972656	-814.631103515625	650.9407958984375	-448.5511779785156	-760.3375854492188	531.1036987304688	-427.1240234375	-775.0892333984375	261.8545227050781	-135.6300964355469	-943.1045532226562	422.7174987792969	-433.1544799804688	-841.1548461914062	556.1555786132812	-423.3592224121094	-486.2461547851562	713.871826171875	-145.6363525390625	-948.0798950195312	66.25985717773438	-333.6284484863281	-551.2937622070312	671.0956420898438	-136.9866180419922	-432.8738708496094	629.3602294921875	-164.5195617675781	-502.998291015625	587.4827270507812	-156.2011566162109	-823.16748046875	498.3049011230469	-426.8223266601562	-464.5338439941406	573.924560546875	-155.5413055419922	-881.2196044921875	373.6552429199219	-427.2301635742188	-944.1098022460938	296.570068359375	-411.9847106933594	-522.4937744140625	482.4396057128906	-157.9030609130859	-1009.729675292969	69.22099304199219	-389.9473571777344	-560.319580078125	553.4227905273438	-152.2726898193359	-1149.269409179688	162.2877807617188	-286.9839477539062	-613.673095703125	434.9183654785156	-161.9394683837891	-648.47265625	506.6036987304688	-157.1128234863281	-1080.349731445312	176.3850555419922	-377.2493896484375	-796.77587890625	380.59228515625	-177.5635223388672	-718.302978515625	207.7518615722656	-186.7164306640625	-843.1735229492188	418.2912902832031	-238.1200408935547	-857.7924194335938	386.4427185058594	-266.0621948242188	-870.0702514648438	403.6746520996094	-214.1571197509766	-1161.810302734375	159.9552612304688	-338.42578125
